<svg width="56" height="56" viewBox="0 0 56 56" fill="none" xmlns="http://www.w3.org/2000/svg">
<path d="M28 0.5C43.18 0.5 55.5 12.82 55.5 28C55.5 43.18 43.18 55.5 28 55.5C12.82 55.5 0.5 43.18 0.5 28C0.5 12.82 12.82 0.5 28 0.5ZM11.5633 37.394C15.6003 43.4165 21.6613 47.25 28.44 47.25C35.216 47.25 41.2798 43.4193 45.314 37.394C40.7373 33.1166 34.7043 30.7412 28.44 30.75C22.1747 30.7405 16.1407 33.116 11.5633 37.394ZM28 25.25C30.188 25.25 32.2865 24.3808 33.8336 22.8336C35.3808 21.2865 36.25 19.188 36.25 17C36.25 14.812 35.3808 12.7135 33.8336 11.1664C32.2865 9.61919 30.188 8.75 28 8.75C25.812 8.75 23.7135 9.61919 22.1664 11.1664C20.6192 12.7135 19.75 14.812 19.75 17C19.75 19.188 20.6192 21.2865 22.1664 22.8336C23.7135 24.3808 25.812 25.25 28 25.25Z" fill="#FAFAFC"/>
</svg>
