<svg width="58" height="64" viewBox="0 0 58 64" fill="none" xmlns="http://www.w3.org/2000/svg">
<path d="M47.4426 34.832V21.5687C47.4426 16.6439 45.4863 11.9209 42.004 8.43863C38.5217 4.95633 33.7987 3 28.874 3C23.9493 3 19.2263 4.95633 15.744 8.43863C12.2617 11.9209 10.3053 16.6439 10.3053 21.5687V34.832C10.2264 41.3842 8.39455 47.7958 5 53.4006H52.748C49.3534 47.7958 47.5215 41.3842 47.4426 34.832Z" stroke="#FAFAFC" stroke-width="5.30533" stroke-miterlimit="10" stroke-linecap="square"/>
<path d="M25.0519 61.4544C24.4881 61.0568 23.9934 60.5762 23.5824 60.0321H34.1658C33.7549 60.5762 33.2601 61.0568 32.6964 61.4544C31.5779 62.2432 30.2428 62.6667 28.8741 62.6667C27.5055 62.6667 26.1703 62.2432 25.0519 61.4544Z" fill="#212121" stroke="#FAFAFC" stroke-width="2.65267"/>
</svg>
