<svg width="40" height="40" viewBox="0 0 40 40" fill="none" xmlns="http://www.w3.org/2000/svg">
<path d="M3.55569 10.2222C3.55569 9.30221 4.31403 8.55554 5.20903 8.55554H35.2357C36.149 8.55554 36.889 9.29721 36.889 10.2222V33.5555C36.889 34.4755 36.1307 35.2222 35.2357 35.2222H5.20903C4.99091 35.2218 4.77502 35.1783 4.57376 35.0942C4.37249 35.0101 4.18981 34.8871 4.0362 34.7323C3.88258 34.5774 3.76106 34.3938 3.6786 34.1918C3.59615 33.9899 3.55438 33.7737 3.55569 33.5555V10.2222ZM23.5557 30.2222C25.7658 30.2222 27.8854 29.3442 29.4482 27.7814C31.0111 26.2186 31.889 24.099 31.889 21.8889C31.889 19.6787 31.0111 17.5591 29.4482 15.9963C27.8854 14.4335 25.7658 13.5555 23.5557 13.5555C21.3456 13.5555 19.2259 14.4335 17.6631 15.9963C16.1003 17.5591 15.2224 19.6787 15.2224 21.8889C15.2224 24.099 16.1003 26.2186 17.6631 27.7814C19.2259 29.3442 21.3456 30.2222 23.5557 30.2222ZM6.88903 11.8889V15.2222H11.889V11.8889H6.88903ZM6.88903 3.55554H16.889V6.88888H6.88903V3.55554Z" fill="#FAFAFC"/>
</svg>
