<svg width="40" height="40" viewBox="0 0 40 40" fill="none" xmlns="http://www.w3.org/2000/svg">
<path d="M19.9999 38.3333C17.4952 38.3331 15.0483 37.5804 12.9764 36.1728C10.9046 34.7653 9.30342 32.7677 8.38049 30.4392C7.45756 28.1107 7.25546 25.5586 7.80038 23.1139C8.34531 20.6691 9.61212 18.4445 11.4366 16.7283C13.6732 14.6233 19.1666 10.8333 18.3332 2.5C28.3332 9.16667 33.3332 15.8333 23.3332 25.8333C24.9999 25.8333 27.4999 25.8333 31.6666 21.7167C32.1166 23.005 32.4999 24.39 32.4999 25.8333C32.4999 29.1485 31.183 32.328 28.8387 34.6722C26.4945 37.0164 23.3151 38.3333 19.9999 38.3333Z" fill="#FAFAFC"/>
</svg>
