<svg width="58" height="58" viewBox="0 0 58 58" fill="none" xmlns="http://www.w3.org/2000/svg">
<path d="M29.0001 0.666748C36.6982 0.666748 37.6587 0.695081 40.6791 0.836748C43.6966 0.978415 45.7507 1.45158 47.5584 2.15425C49.4284 2.87391 51.0037 3.84858 52.5791 5.42108C54.0198 6.83745 55.1346 8.55075 55.8459 10.4417C56.5457 12.2466 57.0217 14.3036 57.1634 17.3211C57.2966 20.3414 57.3334 21.3019 57.3334 29.0001C57.3334 36.6982 57.3051 37.6587 57.1634 40.6791C57.0217 43.6966 56.5457 45.7507 55.8459 47.5584C55.1367 49.4504 54.0216 51.1642 52.5791 52.5791C51.1623 54.0193 49.4491 55.134 47.5584 55.8459C45.7536 56.5457 43.6966 57.0217 40.6791 57.1634C37.6587 57.2966 36.6982 57.3334 29.0001 57.3334C21.3019 57.3334 20.3414 57.3051 17.3211 57.1634C14.3036 57.0217 12.2494 56.5457 10.4417 55.8459C8.55 55.1361 6.83641 54.0211 5.42108 52.5791C3.98007 51.1629 2.86522 49.4496 2.15425 47.5584C1.45158 45.7536 0.978415 43.6966 0.836748 40.6791C0.703581 37.6587 0.666748 36.6982 0.666748 29.0001C0.666748 21.3019 0.695081 20.3414 0.836748 17.3211C0.978415 14.3007 1.45158 12.2494 2.15425 10.4417C2.86325 8.54959 3.97836 6.83582 5.42108 5.42108C6.83682 3.97957 8.55029 2.86465 10.4417 2.15425C12.2494 1.45158 14.3007 0.978415 17.3211 0.836748C20.3414 0.703581 21.3019 0.666748 29.0001 0.666748ZM29.0001 14.8334C25.2428 14.8334 21.6395 16.326 18.9827 18.9827C16.326 21.6395 14.8334 25.2428 14.8334 29.0001C14.8334 32.7573 16.326 36.3607 18.9827 39.0174C21.6395 41.6742 25.2428 43.1667 29.0001 43.1667C32.7573 43.1667 36.3607 41.6742 39.0174 39.0174C41.6742 36.3607 43.1667 32.7573 43.1667 29.0001C43.1667 25.2428 41.6742 21.6395 39.0174 18.9827C36.3607 16.326 32.7573 14.8334 29.0001 14.8334ZM47.4167 14.1251C47.4167 13.1858 47.0436 12.2849 46.3794 11.6207C45.7152 10.9566 44.8144 10.5834 43.8751 10.5834C42.9358 10.5834 42.0349 10.9566 41.3707 11.6207C40.7066 12.2849 40.3334 13.1858 40.3334 14.1251C40.3334 15.0644 40.7066 15.9652 41.3707 16.6294C42.0349 17.2936 42.9358 17.6667 43.8751 17.6667C44.8144 17.6667 45.7152 17.2936 46.3794 16.6294C47.0436 15.9652 47.4167 15.0644 47.4167 14.1251ZM29.0001 20.5001C31.2544 20.5001 33.4164 21.3956 35.0105 22.9897C36.6045 24.5837 37.5001 26.7457 37.5001 29.0001C37.5001 31.2544 36.6045 33.4164 35.0105 35.0105C33.4164 36.6045 31.2544 37.5001 29.0001 37.5001C26.7457 37.5001 24.5837 36.6045 22.9897 35.0105C21.3956 33.4164 20.5001 31.2544 20.5001 29.0001C20.5001 26.7457 21.3956 24.5837 22.9897 22.9897C24.5837 21.3956 26.7457 20.5001 29.0001 20.5001Z" fill="#FAFAFC"/>
</svg>
