<svg width="150" height="150" viewBox="0 0 150 150" fill="none" xmlns="http://www.w3.org/2000/svg">
<path d="M77.3441 105.469L59.18 123.633C57.8736 124.944 56.3212 125.984 54.6119 126.694C52.9025 127.404 51.0699 127.769 49.2191 127.769C47.3683 127.769 45.5357 127.404 43.8263 126.694C42.117 125.984 40.5646 124.944 39.2582 123.633L26.3675 110.742C25.0565 109.436 24.0163 107.883 23.3066 106.174C22.5968 104.465 22.2314 102.632 22.2314 100.781C22.2314 98.9304 22.5968 97.0978 23.3066 95.3885C24.0163 93.6792 25.0565 92.1268 26.3675 90.8203L44.5316 72.6562" stroke="#E76057" stroke-width="6" stroke-linecap="round" stroke-linejoin="round"/>
<path d="M32.8125 117.188L14.0625 135.938" stroke="#E76057" stroke-width="6" stroke-linecap="round" stroke-linejoin="round"/>
<path d="M135.938 14.0625L117.188 32.8125" stroke="#E76057" stroke-width="6" stroke-linecap="round" stroke-linejoin="round"/>
<path d="M84.375 84.375L70.3125 98.4375" stroke="#E76057" stroke-width="6" stroke-linecap="round" stroke-linejoin="round"/>
<path d="M65.625 65.625L51.5625 79.6875" stroke="#E76057" stroke-width="6" stroke-linecap="round" stroke-linejoin="round"/>
<path d="M105.469 77.3441L123.633 59.18C124.944 57.8736 125.984 56.3212 126.694 54.6119C127.404 52.9025 127.769 51.0699 127.769 49.2191C127.769 47.3683 127.404 45.5357 126.694 43.8263C125.984 42.117 124.944 40.5646 123.633 39.2582L110.742 26.3675C109.436 25.0565 107.883 24.0163 106.174 23.3066C104.465 22.5968 102.632 22.2314 100.781 22.2314C98.9304 22.2314 97.0978 22.5968 95.3885 23.3066C93.6792 24.0163 92.1268 25.0565 90.8203 26.3675L72.6562 44.5316" stroke="#E76057" stroke-width="6" stroke-linecap="round" stroke-linejoin="round"/>
<path d="M67.9688 39.8438L110.156 82.0312" stroke="#E76057" stroke-width="6" stroke-linecap="round" stroke-linejoin="round"/>
<path d="M39.8438 67.9688L82.0312 110.156" stroke="#E76057" stroke-width="6" stroke-linecap="round" stroke-linejoin="round"/>
</svg>
