<svg width="38" height="39" viewBox="0 0 38 39" fill="none" xmlns="http://www.w3.org/2000/svg">
<path d="M0 1.14844C7.75 0.382813 13.6094 0 17.5781 0C21.5469 0 24.6875 0.289063 27 0.867188C29.3281 1.44531 31.2422 2.34375 32.7422 3.5625C35.6484 5.9375 37.1016 9.83594 37.1016 15.2578C37.1016 17.6953 36.6406 19.9297 35.7187 21.9609C34.7969 23.9922 33.5391 25.7344 31.9453 27.1875C30.3516 28.6406 28.4844 29.7734 26.3437 30.5859C24.2031 31.3984 21.9141 31.8047 19.4766 31.8047L15.3047 31.7109V38.4844H0V1.14844ZM21.1172 9.72656C19.7734 9.72656 17.8047 10.6562 15.2109 12.5156V21.3516L17.9531 20.0156C19.7656 19.125 21.0312 18.2734 21.75 17.4609C23.0937 15.9453 23.7656 14.4375 23.7656 12.9375C23.7656 11.4375 23.2578 10.4453 22.2422 9.96094C21.9141 9.80469 21.5391 9.72656 21.1172 9.72656Z" fill="black"/>
</svg>
