<svg width="16" height="28" viewBox="0 0 16 28" fill="none" xmlns="http://www.w3.org/2000/svg">
<path d="M9.33333 27.3332H5.33333V23.3332H9.33333V27.3332ZM9.33333 20.6665H5.33333V20.6572C5.33333 18.4572 5.33333 16.5572 6.22933 15.2265C6.92639 14.3431 7.79375 13.6085 8.78 13.0665C9.22533 12.7812 9.64533 12.5105 9.99867 12.2292C10.7566 11.6426 11.3279 10.8485 11.6431 9.94337C11.9584 9.03827 12.0041 8.06111 11.7747 7.13054C11.4149 6.27048 10.769 5.56114 9.94634 5.12257C9.12366 4.684 8.17472 4.54314 7.26012 4.72383C6.34553 4.90453 5.52145 5.39567 4.92736 6.11414C4.33328 6.83261 4.00567 7.73428 4 8.66654H0C0 6.54481 0.842855 4.50998 2.34315 3.00969C3.84344 1.5094 5.87827 0.66654 8 0.66654C9.50659 0.662014 10.9842 1.08019 12.265 1.87355C13.5458 2.66691 14.5783 3.80363 15.2453 5.15454C15.8444 6.53098 16.0453 8.04789 15.8252 9.53282C15.605 11.0177 14.9727 12.4111 14 13.5545C13.396 14.2239 12.72 14.8212 11.9813 15.3372C11.3354 15.7827 10.7462 16.3052 10.2267 16.8932C9.49228 18.0059 9.17579 19.3427 9.33333 20.6665Z" fill="black"/>
</svg>
