<svg width="36" height="36" viewBox="0 0 36 36" fill="none" xmlns="http://www.w3.org/2000/svg">
<path d="M9.90589 13.859L13.4535 10.7286C13.4055 10.3113 13.3846 9.89125 13.3907 9.4712L13.3907 9.44203L4.16444 0.214274C4.09669 0.146352 4.01621 0.0924638 3.9276 0.0556951C3.83899 0.0189264 3.74399 -1.64081e-08 3.64806 -1.59877e-08C3.55212 -1.55672e-08 3.45713 0.0189264 3.36852 0.0556951C3.27991 0.0924638 3.19943 0.146352 3.13168 0.214274L0.214274 3.13168C0.146352 3.19943 0.0924638 3.27991 0.0556951 3.36852C0.0189264 3.45713 1.95404e-08 3.55212 2.00682e-08 3.64806C2.05959e-08 3.74399 0.0189264 3.83899 0.0556951 3.9276C0.0924638 4.01621 0.146352 4.09669 0.214274 4.16444L9.90589 13.859Z" fill="white"/>
<path d="M29.3316 21.0068C28.9298 21.1416 28.5213 21.2555 28.1078 21.3482L27.9415 21.3773C27.2494 21.4805 26.5508 21.5326 25.8511 21.5334C25.3424 21.533 24.834 21.5048 24.3283 21.4488L19.0536 27.3784L24.9351 33.2599C25.4701 33.8087 26.1086 34.246 26.8137 34.5464C27.5187 34.8469 28.2764 35.0046 29.0428 35.0104L29.104 35.0104C30.2665 35.0022 31.4008 34.6513 32.3647 34.0015C33.3287 33.3517 34.0795 32.432 34.5232 31.3574C34.9669 30.2829 35.0837 29.1014 34.8589 27.9608C34.6342 26.8202 34.078 25.7713 33.2599 24.9453L29.3316 21.0068Z" fill="white"/>
<path d="M34.4678 6.45906C34.425 6.34515 34.3543 6.24378 34.2622 6.16418C34.1702 6.08457 34.0597 6.02928 33.9407 6.00332C33.8218 5.97737 33.6983 5.98158 33.5815 6.01557C33.4646 6.04956 33.3581 6.11226 33.2717 6.19795L29.0925 10.3582L24.6537 5.93538L28.8299 1.77808C28.9145 1.69435 28.977 1.59098 29.0119 1.4772C29.0468 1.36342 29.0529 1.24277 29.0298 1.12604C29.0066 1.00783 28.9545 0.897207 28.8781 0.804045C28.8018 0.710884 28.7035 0.638086 28.5922 0.592154C27.3999 0.0730092 26.088 -0.108644 24.7996 0.0670212C22.4509 0.271441 20.2675 1.36017 18.6909 3.11303C17.1143 4.86589 16.2622 7.15206 16.307 9.5092C16.2962 10.2857 16.412 11.0587 16.6498 11.7979L1.99566 24.7103C0.820092 25.7598 0.10922 27.233 0.0192325 28.8062C-0.0707546 30.3795 0.467505 31.9242 1.51575 33.1008L1.64119 33.2379C2.69421 34.3369 4.14024 34.9731 5.66189 35.0071C7.18354 35.041 8.65648 34.4698 9.75741 33.4188C9.92453 33.2602 10.0814 33.0911 10.2271 32.9126L23.23 18.295C24.6317 18.6419 26.0881 18.7088 27.5157 18.4919C29.1898 18.1487 30.7382 17.3544 31.9936 16.1949C33.249 15.0354 34.1636 13.5548 34.6385 11.9131C35.1805 10.1255 35.1206 8.20932 34.4678 6.45906V6.45906Z" fill="white"/>
</svg>
