<svg width="27" height="34" viewBox="0 0 27 34" fill="none" xmlns="http://www.w3.org/2000/svg">
<path d="M1.6875 34C1.23995 34 0.810725 33.8209 0.494258 33.5021C0.17779 33.1833 0 32.7509 0 32.3V1.7C0 1.24913 0.17779 0.81673 0.494258 0.497918C0.810725 0.179107 1.23995 0 1.6875 0H25.3125C25.7601 0 26.1893 0.179107 26.5057 0.497918C26.8222 0.81673 27 1.24913 27 1.7V32.3C27 32.7509 26.8222 33.1833 26.5057 33.5021C26.1893 33.8209 25.7601 34 25.3125 34H1.6875ZM18.5625 23.8L27 17L18.5625 10.2V15.3H8.4375V18.7H18.5625V23.8Z" fill="white"/>
</svg>
