<svg width="61" height="55" viewBox="0 0 61 55" fill="none" xmlns="http://www.w3.org/2000/svg">
<path d="M57.8444 28.0698C57.8444 11.3558 44.8751 0 30.4444 0C16.166 0 3.04444 11.1122 3.04444 28.2524C1.21778 29.2876 0 31.236 0 33.4889V39.5778C0 42.9267 2.74 45.6667 6.08889 45.6667H9.13333V27.0956C9.13333 15.3136 18.6624 5.78445 30.4444 5.78445C42.2264 5.78445 51.7556 15.3136 51.7556 27.0956V48.7111H27.4V54.8H51.7556C55.1044 54.8 57.8444 52.06 57.8444 48.7111V44.9969C59.6407 44.0531 60.8889 42.196 60.8889 40.004V33.0018C60.8889 30.8707 59.6407 29.0136 57.8444 28.0698Z" fill="#FAFAFC"/>
<path d="M21.311 33.4888C22.1185 33.4888 22.8928 33.168 23.4638 32.5971C24.0347 32.0261 24.3555 31.2518 24.3555 30.4443C24.3555 29.6369 24.0347 28.8625 23.4638 28.2916C22.8928 27.7207 22.1185 27.3999 21.311 27.3999C20.5036 27.3999 19.7292 27.7207 19.1583 28.2916C18.5874 28.8625 18.2666 29.6369 18.2666 30.4443C18.2666 31.2518 18.5874 32.0261 19.1583 32.5971C19.7292 33.168 20.5036 33.4888 21.311 33.4888Z" fill="#FAFAFC"/>
<path d="M39.5779 33.4888C40.3853 33.4888 41.1597 33.168 41.7306 32.5971C42.3016 32.0261 42.6223 31.2518 42.6223 30.4443C42.6223 29.6369 42.3016 28.8625 41.7306 28.2916C41.1597 27.7207 40.3853 27.3999 39.5779 27.3999C38.7705 27.3999 37.9961 27.7207 37.4251 28.2916C36.8542 28.8625 36.5334 29.6369 36.5334 30.4443C36.5334 31.2518 36.8542 32.0261 37.4251 32.5971C37.9961 33.168 38.7705 33.4888 39.5779 33.4888Z" fill="#FAFAFC"/>
<path d="M48.711 24.4469C47.9851 20.1668 45.7683 16.2816 42.453 13.4789C39.1377 10.6762 34.9377 9.13686 30.5965 9.1333C21.3719 9.1333 11.447 16.7749 12.2385 28.77C15.9927 27.2337 19.3085 24.7924 21.8901 21.6636C24.4718 18.5348 26.2391 14.8158 27.0345 10.8382C31.0228 18.8451 39.2123 24.3555 48.711 24.4469Z" fill="#FAFAFC"/>
</svg>
