<svg width="90" height="87" viewBox="0 0 90 87" fill="none" xmlns="http://www.w3.org/2000/svg">
<path d="M88.6669 69.3392L55.2481 6.16269C54.2604 4.30183 52.7846 2.74503 50.9792 1.65933C49.1737 0.573626 47.1067 0 45 0C42.8933 0 40.8263 0.573626 39.0208 1.65933C37.2154 2.74503 35.7396 4.30183 34.7519 6.16269L1.33308 69.3392C0.403657 71.102 -0.0538468 73.0753 0.00504556 75.0672C0.063938 77.0592 0.637223 79.002 1.66917 80.7068C2.70111 82.4116 4.1566 83.8204 5.89413 84.7962C7.63167 85.772 9.59213 86.2817 11.5849 86.2756H78.4151C80.4079 86.2817 82.3683 85.772 84.1059 84.7962C85.8434 83.8204 87.2989 82.4116 88.3308 80.7068C89.3628 79.002 89.9361 77.0592 89.9949 75.0672C90.0538 73.0753 89.5963 71.102 88.6669 69.3392V69.3392ZM45 75.0222C43.8871 75.0222 42.7993 74.6922 41.874 74.0739C40.9487 73.4557 40.2275 72.5769 39.8016 71.5487C39.3757 70.5206 39.2643 69.3893 39.4814 68.2978C39.6985 67.2063 40.2344 66.2037 41.0213 65.4168C41.8082 64.6299 42.8108 64.094 43.9023 63.8769C44.9938 63.6598 46.1251 63.7712 47.1532 64.1971C48.1814 64.623 49.0602 65.3442 49.6784 66.2695C50.2967 67.1948 50.6267 68.2827 50.6267 69.3955C50.6267 70.8878 50.0339 72.319 48.9787 73.3742C47.9235 74.4294 46.4923 75.0222 45 75.0222ZM48.7511 56.2665H41.2489L39.3733 26.2575H50.6267L48.7511 56.2665Z" fill="#E76057"/>
</svg>
