<?xml version="1.0" encoding="utf-8"?>
<!-- Generator: Adobe Illustrator 26.3.1, SVG Export Plug-In . SVG Version: 6.00 Build 0)  -->
<svg version="1.1" id="Layer_2_00000183937269962928196790000001397048250683503550_"
	 xmlns="http://www.w3.org/2000/svg" xmlns:xlink="http://www.w3.org/1999/xlink" x="0px" y="0px" viewBox="0 0 836.7 375.7"
	 style="enable-background:new 0 0 836.7 375.7;" xml:space="preserve">
<style type="text/css">
	.st0{fill:#231F20;}
	.st1{fill:none;stroke:#231F20;stroke-width:6;stroke-miterlimit:10;}
	.st2{fill:#231F20;stroke:#231F20;stroke-width:6;stroke-miterlimit:10;}
	.st3{fill:#FF90E8;}
	.st4{fill:none;stroke:#231F20;stroke-width:4;stroke-miterlimit:10;}
	.st5{fill:#FF90E8;stroke:#231F20;stroke-width:4;stroke-miterlimit:10;}
    /* HOME LOGO SVG STYLING ====================== */

.cls-1,.cls-2,.cls-3,.cls-4 {
  stroke:#231f20;
  stroke-miterlimit:10;
}

.cls-1,.cls-3 {
  fill:none;
}

.cls-1,.cls-4 {
  stroke-width:6px;
}

.cls-5,.cls-2 {
  fill:#ff90e8;
}

.cls-6,.cls-4 {
  fill:#231f20;
}

.cls-2,.cls-3 {
  stroke-width:4px;
}

#Layer_1-2 > g > g > g {
    animation: bounce 3s infinite linear;
}

/* I */
#Layer_1-2 > g > g > g:nth-child(5) {
    animation-delay: .1s
}

/* C */
#Layer_1-2 > g > g > g:nth-child(1) {
    animation-delay: .2s
}

/* C */
#Layer_1-2 > g > g > g:nth-child(2) {
    animation-delay: .3s
}

/* L */
#Layer_1-2 > g > g > g:nth-child(3) {
    animation-delay: .4s
}

/* E */
#Layer_1-2 > g > g > g:nth-child(4) {
    animation-delay: .5s
}

@keyframes bounce {
    0%, 10%, 11% {
        transform: translateY(0);
    }
    5% {
        transform: translateY(-10px);
    }
}
</style>
<g id="Layer_1-2">
	<g>
		<g>
			<g>
				<path class="st0" d="M433.5,340.9c-7.7,17.3-25,31.8-61.6,31.8c-28.2,0-46.9-17-52.6-22.2C303.5,336,298,319.4,294,307.3
					c-1.6-4.8-9-28.2-5.2-59.7c2.1-17.8,6-49.5,31.5-74.3c6.6-6.4,24.4-23.2,51.7-25.4c7.6-0.6,25.6-1.8,42.9,9.6
					c25.4,16.8,28.1,47.1,28.5,51.3c-8.4,3.6-21.7,7.9-37.8,6.3c-3.8-0.4-7.3-1-10.5-1.8c0-1.5,0-3.8-0.8-6.5
					c-1.4-4.5-4.5-8.8-8.1-10.9c-8.1-4.7-19,1.3-21.6,2.8c-12.9,7.2-17.6,20.9-21.2,31.5c-6.3,18.6-5,34.4-4.2,42.8
					c0.9,9.2,2.1,21.7,9.9,35.3c4.1,7.1,9.7,16.9,20.7,20.2c2.1,0.6,13.5,4,20-2.9c5-5.3,3.7-13.2,3.5-14.5c6.6-0.9,14.7-1.5,24-0.9
					c10.2,0.6,19,2.4,25.9,4.2c-1.1,4.3-2.4,9-4.2,13.9C437.1,332.9,435.3,337.1,433.5,340.9L433.5,340.9z"/>
				<path class="st1" d="M433.5,340.9c-7.7,17.3-25,31.8-61.6,31.8c-28.2,0-46.9-17-52.6-22.2C303.5,336,298,319.4,294,307.3
					c-1.6-4.8-9-28.2-5.2-59.7c2.1-17.8,6-49.5,31.5-74.3c6.6-6.4,24.4-23.2,51.7-25.4c7.6-0.6,25.6-1.8,42.9,9.6
					c25.4,16.8,28.1,47.1,28.5,51.3c-8.4,3.6-21.7,7.9-37.8,6.3c-3.8-0.4-7.3-1-10.5-1.8c0-1.5,0-3.8-0.8-6.5
					c-1.4-4.5-4.5-8.8-8.1-10.9c-8.1-4.7-19,1.3-21.6,2.8c-12.9,7.2-17.6,20.9-21.2,31.5c-6.3,18.6-5,34.4-4.2,42.8
					c0.9,9.2,2.1,21.7,9.9,35.3c4.1,7.1,9.7,16.9,20.7,20.2c2.1,0.6,13.5,4,20-2.9c5-5.3,3.7-13.2,3.5-14.5c6.6-0.9,14.7-1.5,24-0.9
					c10.2,0.6,19,2.4,25.9,4.2c-1.1,4.3-2.4,9-4.2,13.9C437.1,332.9,435.3,337.1,433.5,340.9L433.5,340.9z"/>
			</g>
			<g>
				<path class="st0" d="M544,367.6c-18.7,1.4-39.5-6.5-51.1-17.2c-34.4-31.6-34.6-81.9-34.2-95.1c0.5-14.8,2.2-65.9,39.7-91.5
					c27.2-18.5,60.4-14.9,76-7.1c10.3,5.1,16.5,13,16.5,13c2.3,3.2,4.8,7.2,7.1,12.2c2,4.4,3.4,8.4,4.3,11.9
					c-5.5,3.2-12.5,6.6-20.8,9.4c-8.9,3-16.9,4.4-23.5,5.2c-0.2-1.6-0.8-4.1-2.3-6.7c-2.2-3.8-5.2-5.6-6.4-6.4
					c-5.3-3.2-11.2-3-14.6-2.1c-20.1,5.2-25,47.2-25.3,51.6l-0.6,9.8c0.5,26.5,5.6,47.1,12.3,56.7c2.4,3.5,6.9,10.1,14.6,12.1
					c2.6,0.7,4.8,0.6,6.3,0.6c2.1-0.1,10.2-0.4,15.5-6.4c2.2-2.5,2.7-4.6,2.8-5.1c0.7-3-0.1-5.7-0.5-6.8c6.8-1.1,16.5-1.9,28-0.1
					c9.2,1.5,16.8,4.1,22.5,6.7c-0.6,6.9-3.1,23.5-15.3,37.1C578.4,367.7,555.5,366.8,544,367.6L544,367.6z"/>
				<path class="st1" d="M544,367.6c-18.7,1.4-39.5-6.5-51.1-17.2c-34.4-31.6-34.6-81.9-34.2-95.1c0.5-14.8,2.2-65.9,39.7-91.5
					c27.2-18.5,60.4-14.9,76-7.1c10.3,5.1,16.5,13,16.5,13c2.3,3.2,4.8,7.2,7.1,12.2c2,4.4,3.4,8.4,4.3,11.9
					c-5.5,3.2-12.5,6.6-20.8,9.4c-8.9,3-16.9,4.4-23.5,5.2c-0.2-1.6-0.8-4.1-2.3-6.7c-2.2-3.8-5.2-5.6-6.4-6.4
					c-5.3-3.2-11.2-3-14.6-2.1c-20.1,5.2-25,47.2-25.3,51.6l-0.6,9.8c0.5,26.5,5.6,47.1,12.3,56.7c2.4,3.5,6.9,10.1,14.6,12.1
					c2.6,0.7,4.8,0.6,6.3,0.6c2.1-0.1,10.2-0.4,15.5-6.4c2.2-2.5,2.7-4.6,2.8-5.1c0.7-3-0.1-5.7-0.5-6.8c6.8-1.1,16.5-1.9,28-0.1
					c9.2,1.5,16.8,4.1,22.5,6.7c-0.6,6.9-3.1,23.5-15.3,37.1C578.4,367.7,555.5,366.8,544,367.6L544,367.6z"/>
			</g>
			<g>
				<path class="st0" d="M628.4,369.4c0,0,0.8-28.3,1.1-42.6c1.9-29.1,0.8-53.9,0.8-86.8c0-36.3,0.5-73.9-1.1-109.4
					c0.5-6.9-2.5-15.7-4.4-20.9c12.4-4.7,21.2-6.3,30-5.8c2.8,0,20.6,1.7,24.2,2.2c-4.1,50.8-2.5,72-3.6,110.2
					c-0.3,15.7-0.3,69.2-0.8,102.2c-0.3,19.2,1.4,38.8,1.9,48.4C671.3,369.7,640,373.2,628.4,369.4L628.4,369.4z"/>
				<path class="st1" d="M628.4,369.4c0,0,0.8-28.3,1.1-42.6c1.9-29.1,0.8-53.9,0.8-86.8c0-36.3,0.5-73.9-1.1-109.4
					c0.5-6.9-2.5-15.7-4.4-20.9c12.4-4.7,21.2-6.3,30-5.8c2.8,0,20.6,1.7,24.2,2.2c-4.1,50.8-2.5,72-3.6,110.2
					c-0.3,15.7-0.3,69.2-0.8,102.2c-0.3,19.2,1.4,38.8,1.9,48.4C671.3,369.7,640,373.2,628.4,369.4L628.4,369.4z"/>
			</g>
			<g>
				<path class="st0" d="M799,315.3c3.3-0.3,16-3.1,33.5-7c-0.7,20.9-5.7,40.2-15.1,58.8l-21.6-2.1c-14.6-1.2-29.5-3.9-41.4-9
					c-10.2-3.8-17.9-8.5-23.1-12.2c-4.7-3.4-12.6-9.1-19.8-19.2c-4.3-6-6.6-11.1-8.6-15.5c-6-13.2-9.3-27-10.5-41.1
					c-1-11.7,0.3-25.3,3.6-36.5c11-34.4,32.6-54.2,62.7-54.6l-0.3,0c46-1.1,71.2,30,75.1,93L750,292.2
					C759.1,310.4,775,317.2,799,315.3L799,315.3z M775.2,246.4c-1.3-8.6-1.5-14-4.4-20.4c-3.2-6.4-7-8.2-12.1-7.8
					c-4.2,0-11.5,6.4-14.3,16.5c-1.8,7.4-2.4,14.4-2,20.1C753.1,251.9,764,249.5,775.2,246.4L775.2,246.4z"/>
				<path class="st1" d="M799,315.3c3.3-0.3,16-3.1,33.5-7c-0.7,20.9-5.7,40.2-15.1,58.8l-21.6-2.1c-14.6-1.2-29.5-3.9-41.4-9
					c-10.2-3.8-17.9-8.5-23.1-12.2c-4.7-3.4-12.6-9.1-19.8-19.2c-4.3-6-6.6-11.1-8.6-15.5c-6-13.2-9.3-27-10.5-41.1
					c-1-11.7,0.3-25.3,3.6-36.5c11-34.4,32.6-54.2,62.7-54.6l-0.3,0c46-1.1,71.2,30,75.1,93L750,292.2
					C759.1,310.4,775,317.2,799,315.3L799,315.3z M775.2,246.4c-1.3-8.6-1.5-14-4.4-20.4c-3.2-6.4-7-8.2-12.1-7.8
					c-4.2,0-11.5,6.4-14.3,16.5c-1.8,7.4-2.4,14.4-2,20.1C753.1,251.9,764,249.5,775.2,246.4L775.2,246.4z"/>
			</g>
			<g>
				<path class="st0" d="M268.1,252.4c0.2-5.1,1.1-25.5,2.2-51.9c0.2-5.7,1-21.7,1.2-27.3l0.5-27.8c-21.1-5.9-42.6-5.3-63.6-0.1
					c-1.6,81.2-6,168.6-9.2,213.9c20.7,6.8,25.9,7.4,30.3,7.9c10.9,0.3,32.7-2.5,32.7-2.5C266,313.7,267.4,271.9,268.1,252.4
					L268.1,252.4z M250.4,33.7c-18.2-2.1-39,11.9-41.5,33.8s15.4,40.7,32.8,42.7c19.4,2.2,37.8-11.6,41.6-34.2
					C284.2,53.9,270,36,250.4,33.7L250.4,33.7z"/>
				<path class="st1" d="M268.1,252.4c0.2-5.1,1.1-25.5,2.2-51.9c0.2-5.7,1-21.7,1.2-27.3l0.5-27.8c-21.1-5.9-42.6-5.3-63.6-0.1
					c-1.6,81.2-6,168.6-9.2,213.9c20.7,6.8,25.9,7.4,30.3,7.9c10.9,0.3,32.7-2.5,32.7-2.5C266,313.7,267.4,271.9,268.1,252.4
					L268.1,252.4z M250.4,33.7c-18.2-2.1-39,11.9-41.5,33.8s15.4,40.7,32.8,42.7c19.4,2.2,37.8-11.6,41.6-34.2
					C284.2,53.9,270,36,250.4,33.7L250.4,33.7z"/>
			</g>
			<g>
				<path class="st2" d="M79.2,93c8.9-2.4,21.5-5.9,35.1,0c4.6,2,15.8,8,21.1,21.1c5.1,12.8,1.3,24.4,0,28.1
					c-7.9,22.8-32.6,31.7-42.1,35.1c-12.9,4.6-24.4,5.3-31.7,5.2c12.4,44.9,18.8,68.1,19.8,72.2c2.4,10.2,5,18.3,8.1,36.2
					c12.9,0.8,28.5-4,47.6-13.7c-7.3-24.8-16-49.3-24.3-75.3c12.5-3.3,22.4-7.9,29.8-13.6c14.4-11.7,25.4-22.5,31.9-40.1
					c6.3-18.5,8.2-41.3,4.6-56.5c-2.1-8.6-5.9-16.4-12.1-23.2c-15.3-17.8-40.2-22.5-74.4-14.3c-20.9,5-56,23.3-70.1,30.9
					c4.9,12,9.7,24,14.6,36C43.6,113.1,57.5,98.9,79.2,93L79.2,93z"/>
				<path class="st2" d="M160.1,326.2c1.2,4.8,3.4,13.7-0.9,22.3c-5.2,10.6-18.5,17.4-31.4,15c-16.9-3.1-22.8-20.3-23.3-21.9
					c-3.5-10.7-2.6-27.2,10.1-35.9c11.6-7.9,26.7-5.1,35.5,2.3C157.1,313.9,159.1,321.9,160.1,326.2z"/>
			</g>
		</g>
		<g>
			<g>
				<path class="st3" d="M413.5,330.9c-7.7,17.3-25,31.8-61.6,31.8c-28.2,0-46.9-17-52.6-22.2C283.5,326,278,309.4,274,297.3
					c-1.6-4.8-9-28.2-5.2-59.7c2.1-17.8,6-49.5,31.5-74.3c6.6-6.4,24.4-23.2,51.7-25.4c7.6-0.6,25.6-1.8,42.9,9.6
					c25.4,16.8,28.1,47.1,28.5,51.3c-8.4,3.6-21.7,7.9-37.8,6.3c-3.8-0.4-7.3-1-10.5-1.8c0-1.5,0-3.8-0.8-6.5
					c-1.4-4.5-4.5-8.8-8.1-10.9c-8.1-4.7-19,1.3-21.6,2.8c-12.9,7.2-17.6,20.9-21.2,31.5c-6.3,18.6-5,34.4-4.2,42.8
					c0.9,9.2,2.1,21.7,9.9,35.3c4.1,7.1,9.7,16.9,20.7,20.2c2.1,0.6,13.5,4,20-2.9c5-5.3,3.7-13.2,3.5-14.5c6.6-0.9,14.7-1.5,24-0.9
					c10.2,0.6,19,2.4,25.9,4.2c-1.1,4.3-2.4,9-4.2,13.9C417.1,322.9,415.3,327.1,413.5,330.9L413.5,330.9z"/>
				<path class="st4" d="M413.5,330.9c-7.7,17.3-25,31.8-61.6,31.8c-28.2,0-46.9-17-52.6-22.2C283.5,326,278,309.4,274,297.3
					c-1.6-4.8-9-28.2-5.2-59.7c2.1-17.8,6-49.5,31.5-74.3c6.6-6.4,24.4-23.2,51.7-25.4c7.6-0.6,25.6-1.8,42.9,9.6
					c25.4,16.8,28.1,47.1,28.5,51.3c-8.4,3.6-21.7,7.9-37.8,6.3c-3.8-0.4-7.3-1-10.5-1.8c0-1.5,0-3.8-0.8-6.5
					c-1.4-4.5-4.5-8.8-8.1-10.9c-8.1-4.7-19,1.3-21.6,2.8c-12.9,7.2-17.6,20.9-21.2,31.5c-6.3,18.6-5,34.4-4.2,42.8
					c0.9,9.2,2.1,21.7,9.9,35.3c4.1,7.1,9.7,16.9,20.7,20.2c2.1,0.6,13.5,4,20-2.9c5-5.3,3.7-13.2,3.5-14.5c6.6-0.9,14.7-1.5,24-0.9
					c10.2,0.6,19,2.4,25.9,4.2c-1.1,4.3-2.4,9-4.2,13.9C417.1,322.9,415.3,327.1,413.5,330.9L413.5,330.9z"/>
			</g>
			<g>
				<path class="st3" d="M524,357.6c-18.7,1.4-39.5-6.5-51.1-17.2c-34.4-31.6-34.6-81.9-34.2-95.1c0.5-14.8,2.2-65.9,39.7-91.5
					c27.2-18.5,60.4-14.9,76-7.1c10.3,5.1,16.5,13,16.5,13c2.3,3.2,4.8,7.2,7.1,12.2c2,4.4,3.4,8.4,4.3,11.9
					c-5.5,3.2-12.5,6.6-20.8,9.4c-8.9,3-16.9,4.4-23.5,5.2c-0.2-1.6-0.8-4.1-2.3-6.7c-2.2-3.8-5.2-5.6-6.4-6.4
					c-5.3-3.2-11.2-3-14.6-2.1c-20.1,5.2-25,47.2-25.3,51.6l-0.6,9.8c0.5,26.5,5.6,47.1,12.3,56.7c2.4,3.5,6.9,10.1,14.6,12.1
					c2.6,0.7,4.8,0.6,6.3,0.6c2.1-0.1,10.2-0.4,15.5-6.4c2.2-2.5,2.7-4.6,2.8-5.1c0.7-3-0.1-5.7-0.5-6.8c6.8-1.1,16.5-1.9,28-0.1
					c9.2,1.5,16.8,4.1,22.5,6.7c-0.6,6.9-3.1,23.5-15.3,37.1C558.4,357.7,535.5,356.8,524,357.6L524,357.6z"/>
				<path class="st4" d="M524,357.6c-18.7,1.4-39.5-6.5-51.1-17.2c-34.4-31.6-34.6-81.9-34.2-95.1c0.5-14.8,2.2-65.9,39.7-91.5
					c27.2-18.5,60.4-14.9,76-7.1c10.3,5.1,16.5,13,16.5,13c2.3,3.2,4.8,7.2,7.1,12.2c2,4.4,3.4,8.4,4.3,11.9
					c-5.5,3.2-12.5,6.6-20.8,9.4c-8.9,3-16.9,4.4-23.5,5.2c-0.2-1.6-0.8-4.1-2.3-6.7c-2.2-3.8-5.2-5.6-6.4-6.4
					c-5.3-3.2-11.2-3-14.6-2.1c-20.1,5.2-25,47.2-25.3,51.6l-0.6,9.8c0.5,26.5,5.6,47.1,12.3,56.7c2.4,3.5,6.9,10.1,14.6,12.1
					c2.6,0.7,4.8,0.6,6.3,0.6c2.1-0.1,10.2-0.4,15.5-6.4c2.2-2.5,2.7-4.6,2.8-5.1c0.7-3-0.1-5.7-0.5-6.8c6.8-1.1,16.5-1.9,28-0.1
					c9.2,1.5,16.8,4.1,22.5,6.7c-0.6,6.9-3.1,23.5-15.3,37.1C558.4,357.7,535.5,356.8,524,357.6L524,357.6z"/>
			</g>
			<g>
				<path class="st3" d="M608.4,359.4c0,0,0.8-28.3,1.1-42.6c1.9-29.1,0.8-53.9,0.8-86.8c0-36.3,0.5-73.9-1.1-109.4
					c0.5-6.9-2.5-15.7-4.4-20.9c12.4-4.7,21.2-6.3,30-5.8c2.8,0,20.6,1.7,24.2,2.2c-4.1,50.8-2.5,72-3.6,110.2
					c-0.3,15.7-0.3,69.2-0.8,102.2c-0.3,19.2,1.4,38.8,1.9,48.4C651.3,359.7,620,363.2,608.4,359.4L608.4,359.4z"/>
				<path class="st4" d="M608.4,359.4c0,0,0.8-28.3,1.1-42.6c1.9-29.1,0.8-53.9,0.8-86.8c0-36.3,0.5-73.9-1.1-109.4
					c0.5-6.9-2.5-15.7-4.4-20.9c12.4-4.7,21.2-6.3,30-5.8c2.8,0,20.6,1.7,24.2,2.2c-4.1,50.8-2.5,72-3.6,110.2
					c-0.3,15.7-0.3,69.2-0.8,102.2c-0.3,19.2,1.4,38.8,1.9,48.4C651.3,359.7,620,363.2,608.4,359.4L608.4,359.4z"/>
			</g>
			<g>
				<path class="st3" d="M779,305.3c3.3-0.3,16-3.1,33.5-7c-0.7,20.9-5.7,40.2-15.1,58.8l-21.6-2.1c-14.6-1.2-29.5-3.9-41.4-9
					c-10.2-3.8-17.9-8.5-23.1-12.2c-4.7-3.4-12.6-9.1-19.8-19.2c-4.3-6-6.6-11.1-8.6-15.5c-6-13.2-9.3-27-10.5-41.1
					c-1-11.7,0.3-25.3,3.6-36.5c11-34.4,32.6-54.2,62.7-54.6l-0.3,0c46-1.1,71.2,30,75.1,93L730,282.2
					C739.1,300.4,755,307.2,779,305.3L779,305.3z M755.2,236.4c-1.3-8.6-1.5-14-4.4-20.4c-3.2-6.4-7-8.2-12.1-7.8
					c-4.2,0-11.5,6.4-14.3,16.5c-1.8,7.4-2.4,14.4-2,20.1C733.1,241.9,744,239.5,755.2,236.4L755.2,236.4z"/>
				<path class="st4" d="M779,305.3c3.3-0.3,16-3.1,33.5-7c-0.7,20.9-5.7,40.2-15.1,58.8l-21.6-2.1c-14.6-1.2-29.5-3.9-41.4-9
					c-10.2-3.8-17.9-8.5-23.1-12.2c-4.7-3.4-12.6-9.1-19.8-19.2c-4.3-6-6.6-11.1-8.6-15.5c-6-13.2-9.3-27-10.5-41.1
					c-1-11.7,0.3-25.3,3.6-36.5c11-34.4,32.6-54.2,62.7-54.6l-0.3,0c46-1.1,71.2,30,75.1,93L730,282.2
					C739.1,300.4,755,307.2,779,305.3L779,305.3z M755.2,236.4c-1.3-8.6-1.5-14-4.4-20.4c-3.2-6.4-7-8.2-12.1-7.8
					c-4.2,0-11.5,6.4-14.3,16.5c-1.8,7.4-2.4,14.4-2,20.1C733.1,241.9,744,239.5,755.2,236.4L755.2,236.4z"/>
			</g>
			<g>
				<path class="st3" d="M248.1,242.4c0.2-5.1,1.1-25.5,2.2-51.9c0.2-5.7,0.9-21.7,1.2-27.3l0.5-27.8c-21.1-5.9-42.6-5.3-63.6-0.1
					c-1.6,81.2-6,168.6-9.2,213.9c20.7,6.8,25.9,7.4,30.3,7.9c10.9,0.3,32.7-2.5,32.7-2.5C246,303.7,247.4,261.9,248.1,242.4
					L248.1,242.4z M230.4,23.7c-18.2-2.1-39,11.9-41.5,33.8s15.4,40.7,32.8,42.7c19.4,2.2,37.8-11.6,41.6-34.2
					C264.2,43.9,250,26,230.4,23.7L230.4,23.7z"/>
				<path class="st4" d="M248.1,242.4c0.2-5.1,1.1-25.5,2.2-51.9c0.2-5.7,0.9-21.7,1.2-27.3l0.5-27.8c-21.1-5.9-42.6-5.3-63.6-0.1
					c-1.6,81.2-6,168.6-9.2,213.9c20.7,6.8,25.9,7.4,30.3,7.9c10.9,0.3,32.7-2.5,32.7-2.5C246,303.7,247.4,261.9,248.1,242.4
					L248.1,242.4z M230.4,23.7c-18.2-2.1-39,11.9-41.5,33.8s15.4,40.7,32.8,42.7c19.4,2.2,37.8-11.6,41.6-34.2
					C264.2,43.9,250,26,230.4,23.7L230.4,23.7z"/>
			</g>
			<g>
				<path class="st5" d="M59.2,83c8.9-2.4,21.5-5.9,35.1,0c4.6,2,15.8,8,21.1,21.1c5.1,12.8,1.3,24.4,0,28.1
					c-7.9,22.8-32.6,31.7-42.1,35.1c-12.9,4.6-24.4,5.3-31.7,5.2c12.4,44.9,18.8,68.1,19.8,72.2c2.4,10.2,5,18.3,8.1,36.2
					c12.9,0.8,28.5-4,47.6-13.7c-7.3-24.8-16-49.3-24.3-75.3c12.5-3.3,22.4-7.9,29.8-13.6c14.4-11.7,25.4-22.5,31.9-40.1
					c6.3-18.5,8.2-41.3,4.6-56.5c-2.1-8.6-5.9-16.4-12.1-23.2c-15.3-17.8-40.2-22.5-74.4-14.3c-20.9,5-56,23.3-70.1,30.9
					c4.9,12,9.7,24,14.6,36C23.7,103.1,37.5,88.9,59.2,83z"/>
				<path class="st5" d="M140.1,316.2c1.2,4.8,3.4,13.7-0.9,22.3c-5.2,10.6-18.5,17.4-31.4,15c-16.9-3.1-22.8-20.3-23.3-21.9
					c-3.5-10.7-2.6-27.2,10.1-35.9c11.6-7.9,26.7-5.1,35.5,2.3C137.1,303.9,139.1,311.9,140.1,316.2z"/>
			</g>
		</g>
	</g>
</g>
</svg>
