<?xml version="1.0" encoding="UTF-8"?><svg id="Layer_2" xmlns="http://www.w3.org/2000/svg" viewBox="0 0 836.65 354.17"><defs><style>.cls-1,.cls-2,.cls-3,.cls-4{stroke:#231f20;stroke-miterlimit:10;}.cls-1,.cls-3{fill:none;}.cls-1,.cls-4{stroke-width:6px;}.cls-5,.cls-2{fill:#ff90e8;}.cls-6,.cls-4{fill:#231f20;}.cls-2,.cls-3{stroke-width:4px;}

#Layer_1-2 > g > g > g {
    animation: bounce .25s forwards linear;
}

/* P */
#Layer_1-2 > g > g > g:nth-child(6) {
}

/* I */
#Layer_1-2 > g > g > g:nth-child(5) {
    animation-delay: .1s
}

/* C */
#Layer_1-2 > g > g > g:nth-child(1) {
    animation-delay: .2s
}

/* C */
#Layer_1-2 > g > g > g:nth-child(2) {
    animation-delay: .3s
}

/* L */
#Layer_1-2 > g > g > g:nth-child(3) {
    animation-delay: .4s
}

/* E */
#Layer_1-2 > g > g > g:nth-child(4) {
    animation-delay: .5s
}

@keyframes bounce {
    0%, 100% {
        transform: translateY(0);
    }
    50% {
        transform: translateY(-8px);
    }
}

</style></defs><g id="Layer_1-2"><g><g><g><path class="cls-6" d="M433.46,319.35c-7.67,17.33-25,31.82-61.65,31.82-28.16,0-46.93-16.96-52.56-22.16-15.75-14.56-21.22-31.11-25.24-43.26-1.6-4.83-8.99-28.17-5.17-59.71,2.15-17.75,5.99-49.52,31.5-74.28,6.58-6.38,24.35-23.17,51.71-25.39,7.61-.62,25.65-1.82,42.9,9.56,25.44,16.79,28.14,47.09,28.45,51.31-8.39,3.65-21.73,7.88-37.78,6.31-3.81-.37-7.33-1.03-10.53-1.84,.05-1.53-.04-3.84-.84-6.46-1.37-4.52-4.45-8.81-8.09-10.93-8.13-4.74-18.99,1.34-21.63,2.82-12.94,7.25-17.56,20.89-21.16,31.5-6.31,18.64-5.01,34.4-4.23,42.78,.85,9.18,2.15,21.73,9.87,35.26,4.07,7.13,9.66,16.92,20.69,20.22,2.12,.63,13.52,4.04,20-2.89,4.96-5.31,3.74-13.16,3.51-14.5,6.61-.9,14.73-1.47,23.98-.94,10.22,.58,18.97,2.35,25.86,4.23-1.06,4.27-2.43,8.95-4.24,13.91-1.7,4.66-3.53,8.88-5.35,12.64Z"/><path class="cls-1" d="M433.46,319.35c-7.67,17.33-25,31.82-61.65,31.82-28.16,0-46.93-16.96-52.56-22.16-15.75-14.56-21.22-31.11-25.24-43.26-1.6-4.83-8.99-28.17-5.17-59.71,2.15-17.75,5.99-49.52,31.5-74.28,6.58-6.38,24.35-23.17,51.71-25.39,7.61-.62,25.65-1.82,42.9,9.56,25.44,16.79,28.14,47.09,28.45,51.31-8.39,3.65-21.73,7.88-37.78,6.31-3.81-.37-7.33-1.03-10.53-1.84,.05-1.53-.04-3.84-.84-6.46-1.37-4.52-4.45-8.81-8.09-10.93-8.13-4.74-18.99,1.34-21.63,2.82-12.94,7.25-17.56,20.89-21.16,31.5-6.31,18.64-5.01,34.4-4.23,42.78,.85,9.18,2.15,21.73,9.87,35.26,4.07,7.13,9.66,16.92,20.69,20.22,2.12,.63,13.52,4.04,20-2.89,4.96-5.31,3.74-13.16,3.51-14.5,6.61-.9,14.73-1.47,23.98-.94,10.22,.58,18.97,2.35,25.86,4.23-1.06,4.27-2.43,8.95-4.24,13.91-1.7,4.66-3.53,8.88-5.35,12.64Z"/></g><g><path class="cls-6" d="M544.05,346.08c-18.73,1.39-39.53-6.54-51.12-17.21-34.36-31.63-34.61-81.85-34.17-95.07,.49-14.83,2.18-65.93,39.66-91.47,27.18-18.53,60.39-14.88,76.01-7.1,10.27,5.12,16.54,12.97,16.54,12.97,2.26,3.19,4.77,7.25,7.06,12.22,2.01,4.36,3.39,8.42,4.35,11.9-5.54,3.18-12.52,6.59-20.85,9.37-8.87,2.97-16.89,4.44-23.45,5.16-.23-1.56-.79-4.06-2.33-6.68-2.23-3.81-5.2-5.64-6.43-6.38-5.33-3.17-11.25-2.98-14.58-2.12-20.11,5.23-25.01,47.25-25.3,51.56l-.65,9.84c.46,26.52,5.65,47.1,12.26,56.73,2.37,3.45,6.94,10.09,14.6,12.1,2.63,.69,4.83,.61,6.27,.56,2.07-.07,10.22-.35,15.53-6.42,2.18-2.49,2.72-4.64,2.83-5.1,.72-3.05-.08-5.67-.5-6.81,6.85-1.13,16.55-1.9,27.95-.11,9.2,1.45,16.81,4.13,22.49,6.66-.63,6.89-3.08,23.54-15.32,37.14-16.52,18.36-39.36,17.42-50.85,18.27Z"/><path class="cls-1" d="M544.05,346.08c-18.73,1.39-39.53-6.54-51.12-17.21-34.36-31.63-34.61-81.85-34.17-95.07,.49-14.83,2.18-65.93,39.66-91.47,27.18-18.53,60.39-14.88,76.01-7.1,10.27,5.12,16.54,12.97,16.54,12.97,2.26,3.19,4.77,7.25,7.06,12.22,2.01,4.36,3.39,8.42,4.35,11.9-5.54,3.18-12.52,6.59-20.85,9.37-8.87,2.97-16.89,4.44-23.45,5.16-.23-1.56-.79-4.06-2.33-6.68-2.23-3.81-5.2-5.64-6.43-6.38-5.33-3.17-11.25-2.98-14.58-2.12-20.11,5.23-25.01,47.25-25.3,51.56l-.65,9.84c.46,26.52,5.65,47.1,12.26,56.73,2.37,3.45,6.94,10.09,14.6,12.1,2.63,.69,4.83,.61,6.27,.56,2.07-.07,10.22-.35,15.53-6.42,2.18-2.49,2.72-4.64,2.83-5.1,.72-3.05-.08-5.67-.5-6.81,6.85-1.13,16.55-1.9,27.95-.11,9.2,1.45,16.81,4.13,22.49,6.66-.63,6.89-3.08,23.54-15.32,37.14-16.52,18.36-39.36,17.42-50.85,18.27Z"/></g><g><path class="cls-6" d="M628.43,347.86s.82-28.31,1.1-42.59c1.93-29.13,.83-53.86,.83-86.83,0-36.27,.55-73.92-1.1-109.37,.55-6.87-2.47-15.67-4.4-20.89,12.37-4.67,21.16-6.32,29.95-5.77,2.75,0,20.61,1.65,24.18,2.2-4.12,50.84-2.47,71.99-3.57,110.19-.28,15.66-.28,69.25-.83,102.22-.27,19.24,1.38,38.75,1.93,48.37-5.22,2.75-36.55,6.32-48.09,2.47Z"/><path class="cls-1" d="M628.43,347.86s.82-28.31,1.1-42.59c1.93-29.13,.83-53.86,.83-86.83,0-36.27,.55-73.92-1.1-109.37,.55-6.87-2.47-15.67-4.4-20.89,12.37-4.67,21.16-6.32,29.95-5.77,2.75,0,20.61,1.65,24.18,2.2-4.12,50.84-2.47,71.99-3.57,110.19-.28,15.66-.28,69.25-.83,102.22-.27,19.24,1.38,38.75,1.93,48.37-5.22,2.75-36.55,6.32-48.09,2.47Z"/></g><g><path class="cls-6" d="M798.95,293.78c3.29-.27,16.02-3.12,33.48-6.96-.69,20.85-5.74,40.25-15.07,58.78l-21.57-2.15c-14.56-1.22-29.54-3.91-41.41-8.96-10.22-3.76-17.94-8.51-23.14-12.24-4.69-3.36-12.58-9.13-19.82-19.2-4.32-6.01-6.58-11.08-8.62-15.52-6.04-13.18-9.33-26.96-10.48-41.07-.96-11.67,.33-25.34,3.64-36.46,11.04-34.35,32.62-54.2,62.73-54.56l-.31,.03c46.02-1.06,71.16,30.02,75.12,92.98l-83.45,22.21c9.03,18.24,24.95,25.07,48.9,23.11Zm-23.72-68.87c-1.32-8.63-1.46-14.04-4.39-20.43-3.23-6.36-7-8.16-12.09-7.75-4.21,.04-11.53,6.37-14.31,16.54-1.81,7.38-2.44,14.36-1.98,20.05,10.6-2.98,21.56-5.38,32.76-8.41Z"/><path class="cls-1" d="M798.95,293.78c3.29-.27,16.02-3.12,33.48-6.96-.69,20.85-5.74,40.25-15.07,58.78l-21.57-2.15c-14.56-1.22-29.54-3.91-41.41-8.96-10.22-3.76-17.94-8.51-23.14-12.24-4.69-3.36-12.58-9.13-19.82-19.2-4.32-6.01-6.58-11.08-8.62-15.52-6.04-13.18-9.33-26.96-10.48-41.07-.96-11.67,.33-25.34,3.64-36.46,11.04-34.35,32.62-54.2,62.73-54.56l-.31,.03c46.02-1.06,71.16,30.02,75.12,92.98l-83.45,22.21c9.03,18.24,24.95,25.07,48.9,23.11Zm-23.72-68.87c-1.32-8.63-1.46-14.04-4.39-20.43-3.23-6.36-7-8.16-12.09-7.75-4.21,.04-11.53,6.37-14.31,16.54-1.81,7.38-2.44,14.36-1.98,20.05,10.6-2.98,21.56-5.38,32.76-8.41Z"/></g><g><path class="cls-6" d="M268.06,230.89c.18-5.12,1.09-25.54,2.24-51.88,.25-5.74,.95-21.67,1.2-27.31l.47-27.83c-21.14-5.9-42.64-5.3-63.6-.12-1.65,81.2-6.02,168.63-9.24,213.87,20.66,6.75,25.88,7.35,30.34,7.85,10.92,.34,32.67-2.49,32.67-2.49,3.86-50.81,5.25-92.64,5.93-112.09ZM250.36,12.2c-18.22-2.07-39.03,11.93-41.51,33.77-2.48,21.84,15.36,40.69,32.82,42.68,19.35,2.2,37.84-11.61,41.56-34.21,.97-22.01-13.23-40-32.87-42.23Z"/><path class="cls-1" d="M268.06,230.89c.18-5.12,1.09-25.54,2.24-51.88,.25-5.74,.95-21.67,1.2-27.31l.47-27.83c-21.14-5.9-42.64-5.3-63.6-.12-1.65,81.2-6.02,168.63-9.24,213.87,20.66,6.75,25.88,7.35,30.34,7.85,10.92,.34,32.67-2.49,32.67-2.49,3.86-50.81,5.25-92.64,5.93-112.09ZM250.36,12.2c-18.22-2.07-39.03,11.93-41.51,33.77-2.48,21.84,15.36,40.69,32.82,42.68,19.35,2.2,37.84-11.61,41.56-34.21,.97-22.01-13.23-40-32.87-42.23Z"/></g><g><path class="cls-4" d="M79.2,71.45c8.92-2.45,21.54-5.93,35.08,0,4.62,2.02,15.84,7.98,21.05,21.05,5.09,12.76,1.27,24.38,0,28.06-7.86,22.77-32.62,31.67-42.09,35.08-12.91,4.64-24.36,5.32-31.71,5.2,12.37,44.94,18.78,68.07,19.78,72.23,2.44,10.16,4.96,18.29,8.11,36.22,12.89,.8,28.47-4.02,47.57-13.72-7.32-24.79-16-49.26-24.26-75.27,12.49-3.28,22.42-7.9,29.77-13.63,14.44-11.69,25.42-22.47,31.93-40.12,6.32-18.47,8.21-41.29,4.56-56.5-2.06-8.6-5.95-16.39-12.05-23.16-15.3-17.76-40.18-22.54-74.36-14.34-20.88,5.01-56.02,23.32-70.06,30.94,4.86,12.01,9.72,24.02,14.59,36.02,6.54-7.91,20.37-22.08,42.09-28.06Z"/><path class="cls-4" d="M160.12,304.71c1.18,4.8,3.37,13.66-.91,22.28-5.25,10.58-18.54,17.39-31.38,15.01-16.87-3.13-22.75-20.26-23.27-21.86-3.47-10.69-2.62-27.2,10.09-35.89,11.56-7.91,26.74-5.09,35.47,2.27,6.97,5.88,8.95,13.91,10,18.19Z"/></g></g><g><g><path class="cls-5" d="M413.46,309.35c-7.67,17.33-25,31.82-61.65,31.82-28.16,0-46.93-16.96-52.56-22.16-15.75-14.56-21.22-31.11-25.24-43.26-1.6-4.83-8.99-28.17-5.17-59.71,2.15-17.75,5.99-49.52,31.5-74.28,6.58-6.38,24.35-23.17,51.71-25.39,7.61-.62,25.65-1.82,42.9,9.56,25.44,16.79,28.14,47.09,28.45,51.31-8.39,3.65-21.73,7.88-37.78,6.31-3.81-.37-7.33-1.03-10.53-1.84,.05-1.53-.04-3.84-.84-6.46-1.37-4.52-4.45-8.81-8.09-10.93-8.13-4.74-18.99,1.34-21.63,2.82-12.94,7.25-17.56,20.89-21.16,31.5-6.31,18.64-5.01,34.4-4.23,42.78,.85,9.18,2.15,21.73,9.87,35.26,4.07,7.13,9.66,16.92,20.69,20.22,2.12,.63,13.52,4.04,20-2.89,4.96-5.31,3.74-13.16,3.51-14.5,6.61-.9,14.73-1.47,23.98-.94,10.22,.58,18.97,2.35,25.86,4.23-1.06,4.27-2.43,8.95-4.24,13.91-1.7,4.66-3.53,8.88-5.35,12.64Z"/><path class="cls-3" d="M413.46,309.35c-7.67,17.33-25,31.82-61.65,31.82-28.16,0-46.93-16.96-52.56-22.16-15.75-14.56-21.22-31.11-25.24-43.26-1.6-4.83-8.99-28.17-5.17-59.71,2.15-17.75,5.99-49.52,31.5-74.28,6.58-6.38,24.35-23.17,51.71-25.39,7.61-.62,25.65-1.82,42.9,9.56,25.44,16.79,28.14,47.09,28.45,51.31-8.39,3.65-21.73,7.88-37.78,6.31-3.81-.37-7.33-1.03-10.53-1.84,.05-1.53-.04-3.84-.84-6.46-1.37-4.52-4.45-8.81-8.09-10.93-8.13-4.74-18.99,1.34-21.63,2.82-12.94,7.25-17.56,20.89-21.16,31.5-6.31,18.64-5.01,34.4-4.23,42.78,.85,9.18,2.15,21.73,9.87,35.26,4.07,7.13,9.66,16.92,20.69,20.22,2.12,.63,13.52,4.04,20-2.89,4.96-5.31,3.74-13.16,3.51-14.5,6.61-.9,14.73-1.47,23.98-.94,10.22,.58,18.97,2.35,25.86,4.23-1.06,4.27-2.43,8.95-4.24,13.91-1.7,4.66-3.53,8.88-5.35,12.64Z"/></g><g><path class="cls-5" d="M524.05,336.08c-18.73,1.39-39.53-6.54-51.12-17.21-34.36-31.63-34.61-81.85-34.17-95.07,.49-14.83,2.18-65.93,39.66-91.47,27.18-18.53,60.39-14.88,76.01-7.1,10.27,5.12,16.54,12.97,16.54,12.97,2.26,3.19,4.77,7.25,7.06,12.22,2.01,4.36,3.39,8.42,4.35,11.9-5.54,3.18-12.52,6.59-20.85,9.37-8.87,2.97-16.89,4.44-23.45,5.16-.23-1.56-.79-4.06-2.33-6.68-2.23-3.81-5.2-5.64-6.43-6.38-5.33-3.17-11.25-2.98-14.58-2.12-20.11,5.23-25.01,47.25-25.3,51.56l-.65,9.84c.46,26.52,5.65,47.1,12.26,56.73,2.37,3.45,6.94,10.09,14.6,12.1,2.63,.69,4.83,.61,6.27,.56,2.07-.07,10.22-.35,15.53-6.42,2.18-2.49,2.72-4.64,2.83-5.1,.72-3.05-.08-5.67-.5-6.81,6.85-1.13,16.55-1.9,27.95-.11,9.2,1.45,16.81,4.13,22.49,6.66-.63,6.89-3.08,23.54-15.32,37.14-16.52,18.36-39.36,17.42-50.85,18.27Z"/><path class="cls-3" d="M524.05,336.08c-18.73,1.39-39.53-6.54-51.12-17.21-34.36-31.63-34.61-81.85-34.17-95.07,.49-14.83,2.18-65.93,39.66-91.47,27.18-18.53,60.39-14.88,76.01-7.1,10.27,5.12,16.54,12.97,16.54,12.97,2.26,3.19,4.77,7.25,7.06,12.22,2.01,4.36,3.39,8.42,4.35,11.9-5.54,3.18-12.52,6.59-20.85,9.37-8.87,2.97-16.89,4.44-23.45,5.16-.23-1.56-.79-4.06-2.33-6.68-2.23-3.81-5.2-5.64-6.43-6.38-5.33-3.17-11.25-2.98-14.58-2.12-20.11,5.23-25.01,47.25-25.3,51.56l-.65,9.84c.46,26.52,5.65,47.1,12.26,56.73,2.37,3.45,6.94,10.09,14.6,12.1,2.63,.69,4.83,.61,6.27,.56,2.07-.07,10.22-.35,15.53-6.42,2.18-2.49,2.72-4.64,2.83-5.1,.72-3.05-.08-5.67-.5-6.81,6.85-1.13,16.55-1.9,27.95-.11,9.2,1.45,16.81,4.13,22.49,6.66-.63,6.89-3.08,23.54-15.32,37.14-16.52,18.36-39.36,17.42-50.85,18.27Z"/></g><g><path class="cls-5" d="M608.43,337.86s.82-28.31,1.1-42.59c1.93-29.13,.83-53.86,.83-86.83,0-36.27,.55-73.92-1.1-109.37,.55-6.87-2.47-15.67-4.4-20.89,12.37-4.67,21.16-6.32,29.95-5.77,2.75,0,20.61,1.65,24.18,2.2-4.12,50.84-2.47,71.99-3.57,110.19-.28,15.66-.28,69.25-.83,102.22-.27,19.24,1.38,38.75,1.93,48.37-5.22,2.75-36.55,6.32-48.09,2.47Z"/><path class="cls-3" d="M608.43,337.86s.82-28.31,1.1-42.59c1.93-29.13,.83-53.86,.83-86.83,0-36.27,.55-73.92-1.1-109.37,.55-6.87-2.47-15.67-4.4-20.89,12.37-4.67,21.16-6.32,29.95-5.77,2.75,0,20.61,1.65,24.18,2.2-4.12,50.84-2.47,71.99-3.57,110.19-.28,15.66-.28,69.25-.83,102.22-.27,19.24,1.38,38.75,1.93,48.37-5.22,2.75-36.55,6.32-48.09,2.47Z"/></g><g><path class="cls-5" d="M778.95,283.78c3.29-.27,16.02-3.12,33.48-6.96-.69,20.85-5.74,40.25-15.07,58.78l-21.57-2.15c-14.56-1.22-29.54-3.91-41.41-8.96-10.22-3.76-17.94-8.51-23.14-12.24-4.69-3.36-12.58-9.13-19.82-19.2-4.32-6.01-6.58-11.08-8.62-15.52-6.04-13.18-9.33-26.96-10.48-41.07-.96-11.67,.33-25.34,3.64-36.46,11.04-34.35,32.62-54.2,62.73-54.56l-.31,.03c46.02-1.06,71.16,30.02,75.12,92.98l-83.45,22.21c9.03,18.24,24.95,25.07,48.9,23.11Zm-23.72-68.87c-1.32-8.63-1.46-14.04-4.39-20.43-3.23-6.36-7-8.16-12.09-7.75-4.21,.04-11.53,6.37-14.31,16.54-1.81,7.38-2.44,14.36-1.98,20.05,10.6-2.98,21.56-5.38,32.76-8.41Z"/><path class="cls-3" d="M778.95,283.78c3.29-.27,16.02-3.12,33.48-6.96-.69,20.85-5.74,40.25-15.07,58.78l-21.57-2.15c-14.56-1.22-29.54-3.91-41.41-8.96-10.22-3.76-17.94-8.51-23.14-12.24-4.69-3.36-12.58-9.13-19.82-19.2-4.32-6.01-6.58-11.08-8.62-15.52-6.04-13.18-9.33-26.96-10.48-41.07-.96-11.67,.33-25.34,3.64-36.46,11.04-34.35,32.62-54.2,62.73-54.56l-.31,.03c46.02-1.06,71.16,30.02,75.12,92.98l-83.45,22.21c9.03,18.24,24.95,25.07,48.9,23.11Zm-23.72-68.87c-1.32-8.63-1.46-14.04-4.39-20.43-3.23-6.36-7-8.16-12.09-7.75-4.21,.04-11.53,6.37-14.31,16.54-1.81,7.38-2.44,14.36-1.98,20.05,10.6-2.98,21.56-5.38,32.76-8.41Z"/></g><g><path class="cls-5" d="M248.06,220.89c.18-5.12,1.09-25.54,2.24-51.88,.25-5.74,.95-21.67,1.2-27.31l.47-27.83c-21.14-5.9-42.64-5.3-63.6-.12-1.65,81.2-6.02,168.63-9.24,213.87,20.66,6.75,25.88,7.35,30.34,7.85,10.92,.34,32.67-2.49,32.67-2.49,3.86-50.81,5.25-92.64,5.93-112.09ZM230.36,2.2c-18.22-2.07-39.03,11.93-41.51,33.77-2.48,21.84,15.36,40.69,32.82,42.68,19.35,2.2,37.84-11.61,41.56-34.21,.97-22.01-13.23-40-32.87-42.23Z"/><path class="cls-3" d="M248.06,220.89c.18-5.12,1.09-25.54,2.24-51.88,.25-5.74,.95-21.67,1.2-27.31l.47-27.83c-21.14-5.9-42.64-5.3-63.6-.12-1.65,81.2-6.02,168.63-9.24,213.87,20.66,6.75,25.88,7.35,30.34,7.85,10.92,.34,32.67-2.49,32.67-2.49,3.86-50.81,5.25-92.64,5.93-112.09ZM230.36,2.2c-18.22-2.07-39.03,11.93-41.51,33.77-2.48,21.84,15.36,40.69,32.82,42.68,19.35,2.2,37.84-11.61,41.56-34.21,.97-22.01-13.23-40-32.87-42.23Z"/></g><g><path class="cls-2" d="M59.2,61.45c8.92-2.45,21.54-5.93,35.08,0,4.62,2.02,15.84,7.98,21.05,21.05,5.09,12.76,1.27,24.38,0,28.06-7.86,22.77-32.62,31.67-42.09,35.08-12.91,4.64-24.36,5.32-31.71,5.2,12.37,44.94,18.78,68.07,19.78,72.23,2.44,10.16,4.96,18.29,8.11,36.22,12.89,.8,28.47-4.02,47.57-13.72-7.32-24.79-16-49.26-24.26-75.27,12.49-3.28,22.42-7.9,29.77-13.63,14.44-11.69,25.42-22.47,31.93-40.12,6.32-18.47,8.21-41.29,4.56-56.5-2.06-8.6-5.95-16.39-12.05-23.16-15.3-17.76-40.18-22.54-74.36-14.34C51.71,27.55,16.57,45.86,2.52,53.49c4.86,12.01,9.72,24.02,14.59,36.02,6.54-7.91,20.37-22.08,42.09-28.06Z"/><path class="cls-2" d="M140.12,294.71c1.18,4.8,3.37,13.66-.91,22.28-5.25,10.58-18.54,17.39-31.38,15.01-16.87-3.13-22.75-20.26-23.27-21.86-3.47-10.69-2.62-27.2,10.09-35.89,11.56-7.91,26.74-5.09,35.47,2.27,6.97,5.88,8.95,13.91,10,18.19Z"/></g></g></g></g></svg>